<?xml version="1.0" standalone="no"?>
<!DOCTYPE svg PUBLIC "-//W3C//DTD SVG 20010904//EN"
 "http://www.w3.org/TR/2001/REC-SVG-20010904/DTD/svg10.dtd">
<svg version="1.0" xmlns="http://www.w3.org/2000/svg"
 width="225.000000pt" height="225.000000pt" viewBox="0 0 225.000000 225.000000"
 preserveAspectRatio="xMidYMid meet">
<metadata>
Created by potrace 1.16, written by Peter Selinger 2001-2019
</metadata>
<g transform="translate(0.000000,225.000000) scale(0.100000,-0.100000)"
fill="#000000" stroke="none">
<path d="M169 1571 l-39 -39 0 -486 0 -486 945 0 945 0 0 456 c0 431 -1 456
-17 449 -10 -4 -52 -10 -93 -13 -69 -4 -78 -8 -115 -41 -56 -51 -101 -77 -167
-96 l-58 -16 0 -192 c0 -174 2 -195 20 -225 25 -41 70 -68 128 -77 51 -8 102
-50 102 -84 0 -21 -3 -21 -305 -21 -206 0 -305 3 -305 10 0 48 66 100 126 100
37 0 85 32 109 72 18 29 20 54 23 222 4 200 3 205 -43 206 -34 0 -137 55 -187
99 -43 38 -50 41 -106 41 -105 0 -191 44 -234 120 l-23 40 -334 0 -333 0 -39
-39z m375 -264 c38 -27 23 -64 -55 -143 l-73 -74 73 -74 c56 -56 74 -81 74
-102 0 -30 -25 -54 -57 -54 -30 0 -226 199 -226 230 0 17 30 54 103 127 104
104 125 116 161 90z m318 -4 c10 -9 18 -24 18 -34 0 -26 -138 -370 -157 -391
-23 -26 -60 -22 -79 7 -16 25 -15 31 60 218 43 106 85 198 94 205 22 16 42 15
64 -5z m265 -85 c76 -76 103 -109 103 -128 0 -31 -194 -230 -224 -230 -26 0
-56 29 -56 54 0 12 31 51 77 98 l78 78 -78 78 c-79 79 -89 102 -60 134 30 34
54 22 160 -84z"/>
</g>
</svg>
